<?xml version="1.0" standalone="no"?>
<!DOCTYPE svg PUBLIC "-//W3C//DTD SVG 20010904//EN"
 "http://www.w3.org/TR/2001/REC-SVG-20010904/DTD/svg10.dtd">
<svg version="1.0" xmlns="http://www.w3.org/2000/svg"
 width="210.000000pt" height="210.000000pt" viewBox="0 0 210.000000 210.000000"
 preserveAspectRatio="xMidYMid meet">
<metadata>
Created by potrace 1.14, written by Peter Selinger 2001-2017
</metadata>
<g transform="translate(0.000000,210.000000) scale(0.100000,-0.100000)"
fill="#000000" stroke="none">
<path d="M0 1533 c1 -424 3 -563 12 -548 6 11 32 43 57 71 145 160 149 167
150 217 1 32 46 131 73 163 10 11 31 47 48 80 17 32 42 74 55 93 17 24 23 41
19 58 -5 17 1 34 17 56 23 30 24 40 24 174 0 131 2 143 23 172 l23 31 -251 0
-250 0 0 -567z"/>
<path d="M580 2093 c8 -4 45 -26 83 -50 37 -25 93 -53 125 -62 31 -10 72 -26
91 -36 21 -10 53 -17 80 -16 25 1 64 2 86 2 243 -3 238 -3 331 34 48 20 95 42
104 50 8 7 42 30 74 49 l60 36 -525 -1 c-288 0 -517 -3 -509 -6z"/>
<path d="M1663 2079 c39 -30 56 -99 51 -205 -3 -74 0 -95 17 -128 l20 -39 -20
-19 c-14 -12 -21 -31 -21 -56 0 -38 37 -125 71 -170 10 -13 23 -49 29 -80 6
-31 15 -66 20 -77 5 -11 11 -33 13 -50 13 -83 48 -264 57 -295 13 -41 33 -214
29 -250 -3 -31 -2 -78 2 -150 2 -40 -2 -64 -16 -87 -16 -27 -17 -38 -7 -86 15
-75 56 -163 98 -207 13 -14 26 -41 30 -60 7 -39 45 -120 56 -120 5 0 8 473 8
1050 l0 1050 -231 0 -232 0 26 -21z"/>
<path d="M530 2065 c-1 -5 -2 -14 -1 -19 1 -5 -5 -6 -14 -2 -10 3 -13 2 -10
-5 4 -5 2 -15 -3 -22 -12 -15 -12 -47 1 -47 5 0 4 -7 -4 -16 -10 -13 -10 -17
1 -24 12 -7 11 -12 -4 -28 -17 -19 -17 -21 1 -31 13 -8 15 -13 6 -19 -8 -5 -9
-13 -3 -22 13 -20 13 -53 0 -45 -6 3 -7 -1 -4 -10 4 -8 2 -21 -2 -28 -5 -7 -1
-4 9 6 9 11 17 15 17 9 0 -5 -14 -23 -31 -40 -17 -17 -28 -35 -24 -42 4 -6 1
-18 -7 -27 -9 -12 -9 -15 0 -9 6 4 12 3 12 -1 0 -5 -6 -15 -12 -22 -10 -11
-10 -12 -1 -7 9 5 11 2 7 -8 -3 -9 -10 -13 -15 -10 -5 3 -9 0 -9 -6 0 -6 -4
-8 -10 -5 -5 3 -10 1 -10 -6 0 -7 -12 -26 -27 -41 -15 -15 -21 -28 -15 -28 7
0 12 5 12 12 0 6 3 8 7 5 3 -4 -2 -17 -13 -29 -13 -14 -14 -19 -4 -14 9 4 8 2
-2 -7 -10 -8 -18 -20 -18 -26 0 -7 -5 -9 -12 -5 -6 4 -8 3 -4 -4 3 -6 -1 -15
-10 -20 -9 -5 -17 -20 -17 -34 -1 -15 -4 -25 -7 -23 -10 6 -27 -21 -25 -42 1
-15 -3 -19 -13 -15 -11 4 -13 1 -7 -7 4 -8 2 -17 -6 -23 -11 -8 -10 -9 3 -4
10 3 20 0 24 -6 5 -7 2 -8 -6 -3 -10 6 -12 4 -7 -9 4 -9 3 -15 -2 -12 -5 3
-11 -1 -15 -9 -3 -8 0 -15 7 -16 7 0 3 -4 -8 -8 -11 -5 -21 -13 -21 -20 -1 -6
-2 -18 -3 -27 -1 -10 -7 -14 -16 -11 -8 4 -17 1 -21 -5 -4 -7 -3 -8 4 -4 7 4
12 3 12 -2 0 -6 -7 -13 -16 -16 -10 -4 -14 -12 -9 -24 5 -13 4 -14 -6 -5 -9 9
-16 7 -30 -12 -11 -13 -19 -31 -19 -40 0 -12 -5 -15 -16 -11 -11 4 -15 2 -11
-8 4 -10 -1 -12 -16 -9 -17 4 -19 3 -7 -6 12 -8 12 -11 -3 -17 -12 -4 -16 -13
-12 -28 5 -15 4 -17 -3 -7 -11 16 -21 3 -17 -22 2 -9 -1 -15 -6 -11 -5 3 -9
-5 -9 -18 0 -16 -3 -19 -9 -10 -18 28 -21 -42 -21 -466 l0 -432 1015 0 c657 0
1015 4 1015 10 0 6 -5 10 -10 10 -6 0 -9 3 -9 8 4 21 -3 32 -18 33 -10 0 -13
3 -7 5 8 3 9 16 4 39 -4 19 -5 36 -2 39 3 4 1 6 -4 6 -6 0 -19 7 -30 16 -10 8
-12 12 -4 8 13 -7 13 -5 2 8 -8 9 -21 14 -30 11 -10 -3 -13 -1 -7 4 6 4 11 14
13 21 2 11 -2 13 -38 16 -8 1 -14 8 -12 15 1 7 -3 20 -10 29 -10 12 -10 14 0
8 7 -4 12 -2 12 4 0 6 6 8 13 4 6 -4 4 2 -5 13 -10 11 -18 25 -18 31 0 7 -4
12 -10 12 -5 0 -10 5 -10 11 0 5 5 7 10 4 6 -3 10 1 10 10 0 11 -5 15 -16 11
-10 -4 -13 -2 -8 6 12 18 11 72 -1 80 -6 5 -5 8 3 8 7 0 10 5 6 12 -5 7 -3 8
6 3 10 -6 12 -3 8 13 -4 12 -2 20 2 17 5 -3 14 3 20 14 7 14 7 22 -2 27 -6 4
-8 3 -5 -3 3 -5 0 -10 -8 -10 -13 0 -12 4 2 19 13 14 13 18 2 18 -11 0 -11 2
1 10 9 6 10 10 3 10 -7 0 -11 15 -10 40 1 22 6 40 11 40 5 0 2 8 -5 17 -8 10
-9 14 -2 10 20 -12 8 45 -12 60 -16 11 -16 13 -3 13 13 0 14 6 8 35 -5 20 -4
33 1 29 14 -8 11 18 -6 49 -8 15 -11 26 -7 23 4 -2 7 6 7 19 0 13 -4 23 -10
22 -5 -1 -9 8 -9 21 1 12 -3 22 -7 22 -11 0 -7 23 6 32 6 5 3 8 -7 8 -12 0
-15 6 -10 22 4 16 2 19 -9 13 -12 -8 -12 -6 0 8 11 14 11 17 0 17 -8 0 -5 6 7
15 18 15 18 15 0 8 -13 -4 -17 -3 -12 5 3 6 -1 15 -10 20 -15 8 -15 10 1 16
17 6 17 7 -1 22 -10 9 -13 12 -6 9 10 -5 13 -2 10 11 -2 12 -11 18 -23 16 -18
-2 -19 -2 -2 8 9 6 17 16 17 21 0 6 -5 7 -12 3 -7 -4 -8 -3 -4 5 4 6 2 19 -6
28 -11 14 -11 16 2 9 8 -4 5 1 -8 13 -13 11 -18 22 -12 26 5 3 10 1 10 -6 0
-7 2 -10 5 -8 9 9 -7 49 -18 42 -6 -4 -7 -1 -1 8 15 25 13 41 -8 47 -15 4 -17
7 -6 13 10 7 9 9 -5 9 -10 0 -15 5 -12 10 3 6 1 10 -5 10 -6 0 -9 4 -6 9 3 5
-1 12 -9 15 -8 3 -15 9 -14 13 4 24 -3 43 -16 43 -11 0 -12 5 -5 25 7 18 6 23
-4 19 -7 -3 -13 2 -13 10 0 8 4 13 9 10 10 -6 11 10 1 20 -11 10 -12 37 -2 30
5 -3 9 7 9 21 0 14 4 24 8 21 5 -3 9 2 9 10 0 9 -6 13 -15 9 -12 -4 -13 -3 -2
10 10 12 10 15 -1 15 -10 0 -11 2 -2 8 7 4 9 13 4 21 -5 7 -5 26 -2 42 10 48
1 150 -12 142 -7 -4 -6 1 2 10 20 25 -2 75 -32 72 -12 -1 -30 -3 -39 -4 -10 0
-18 -8 -18 -16 0 -9 -6 -12 -17 -8 -11 4 -14 3 -9 -5 4 -7 2 -12 -4 -12 -6 0
-8 -4 -5 -10 3 -5 0 -7 -8 -4 -8 3 -19 -5 -26 -18 -9 -18 -11 -19 -6 -3 5 19
4 19 -9 2 -10 -14 -15 -15 -19 -5 -3 8 -6 6 -6 -5 -1 -10 -5 -16 -10 -13 -5 3
-14 0 -20 -8 -6 -7 -22 -11 -36 -8 -16 3 -25 0 -25 -8 0 -7 -7 -10 -15 -6 -8
3 -14 0 -12 -5 1 -6 -8 -13 -21 -15 -16 -3 -21 0 -17 8 4 7 0 5 -8 -4 -10 -13
-16 -15 -25 -6 -9 9 -12 7 -13 -7 0 -11 -3 -14 -6 -7 -2 6 -9 10 -14 6 -5 -3
-9 1 -9 8 0 9 -3 9 -10 -2 -9 -13 -10 -13 -10 0 -1 11 -4 10 -17 -5 -13 -16
-15 -17 -10 -2 7 20 3 21 -23 7 -10 -6 -21 -6 -24 -1 -3 4 -17 7 -31 6 -14 -2
-27 0 -30 5 -7 11 -55 0 -56 -14 0 -6 -4 -2 -9 9 -5 11 -9 15 -9 9 -1 -7 -15
-10 -36 -8 -20 1 -33 -1 -30 -6 3 -4 -4 -6 -15 -3 -11 3 -17 10 -13 17 4 6 -1
5 -10 -3 -14 -11 -18 -11 -23 2 -3 8 -13 14 -22 12 -9 -1 -19 2 -22 6 -3 5
-15 10 -27 12 -12 1 -29 9 -39 17 -16 14 -17 13 -10 -4 6 -19 6 -19 -12 -3
-10 9 -22 14 -25 10 -4 -3 -7 -1 -7 5 0 7 -9 12 -19 12 -10 0 -22 7 -25 16 -4
10 -12 14 -22 10 -14 -5 -15 -4 -5 8 10 12 8 13 -10 9 -15 -4 -20 -3 -15 5 4
7 2 12 -4 12 -6 0 -18 7 -27 16 -9 8 -21 13 -29 10 -7 -3 -15 0 -18 7 -2 7 -5
8 -6 2z m-369 -988 c-6 -8 -7 -18 -3 -22 4 -5 1 -5 -6 -1 -10 6 -10 11 -1 22
6 8 14 14 16 14 3 0 0 -6 -6 -13z"/>
</g>
</svg>
